<svg width="632" height="38" viewBox="0 0 632 38" fill="none" xmlns="http://www.w3.org/2000/svg">
<path d="M24.246 37.8H39.42V28.674H24.192C17.172 28.674 11.502 28.458 11.502 21.708V0H0V26.19C0 37.8 10.854 37.8 24.246 37.8Z" fill="#457FDC"/>
<path d="M43.2808 9.18H82.5928V0H62.4508C50.0848 0 44.0908 1.43051e-06 43.2808 9.18ZM43.1729 26.19C43.1729 37.8 49.0588 37.8 62.4508 37.8H82.5928V28.62H62.3968C55.9708 28.62 54.8369 28.674 54.6749 23.49H82.5928V14.31H43.1729V26.19Z" fill="#5187DD"/>
<path d="M129.133 37.8H141.931L121.357 0H106.777L86.2026 37.8H98.9466L114.067 10.044L129.133 37.8Z" fill="#5C8FDE"/>
<path d="M191.388 37.8L180.588 28.62H181.668C189.606 28.62 191.55 22.194 191.55 14.31C191.55 6.426 189.606 0 181.668 0H146.136V37.8H157.638V9.18H177.348C180.21 9.18 180.48 11.448 180.48 14.31C180.48 17.172 180.21 19.44 177.348 19.44H169.086V28.62L179.886 37.8H191.388Z" fill="#6897DF"/>
<path d="M223.932 0C209.73 0 198.228 0 198.228 13.77V37.8H209.73V16.524C209.73 8.586 216.048 9.18 223.932 9.18C231.816 9.18 238.242 8.64 238.242 16.524L238.134 25.704V37.8H249.636V13.77C249.636 0 238.134 0 223.932 0Z" fill="#739FE0"/>
<path d="M310.929 9.18H331.125V0H310.983C297.591 0 291.705 2.86102e-06 291.705 11.61V26.19C291.705 37.8 297.591 37.8 310.983 37.8H331.125V28.62H310.929C303.909 28.62 303.207 28.674 303.207 21.924V15.876C303.207 9.126 303.909 9.18 310.929 9.18Z" fill="#C084FC" fill-opacity="0.5"/>
<path d="M376.808 37.8H389.606L369.032 0H354.452L333.878 37.8H346.622L361.742 10.044L376.808 37.8Z" fill="#C084FC" fill-opacity="0.5"/>
<path d="M450.458 0C443.654 0 437.552 0.108001 433.34 2.16C429.182 0.108001 423.08 0 416.276 0C403.64 0 393.434 0.27 393.434 12.906V37.8H404.936V16.038C404.936 9.774 410.012 9.18 416.276 9.18C422.54 9.18 427.616 9.774 427.616 16.038V37.8H439.118V16.038C439.118 9.774 444.194 9.18 450.458 9.18C456.722 9.18 461.798 9.774 461.798 16.038V37.8H473.3V12.906C473.3 0.27 463.094 0 450.458 0Z" fill="#C084FC" fill-opacity="0.5"/>
<path d="M516.532 0H481V9.18H512.212C515.074 9.18 515.344 11.448 515.344 14.31C515.344 17.172 515.074 19.44 512.212 19.44H481V37.8H492.502V28.62H516.532C524.47 28.62 526.414 22.194 526.414 14.31C526.414 6.426 524.47 0 516.532 0Z" fill="#C084FC" fill-opacity="0.5"/>
<path d="M581.09 26.19V0H569.588V21.924C569.588 28.62 563.918 28.674 556.844 28.674C549.824 28.674 544.154 28.674 544.154 21.924V0H532.652V26.19C532.652 37.8 543.506 37.8 556.844 37.8C570.236 37.8 581.09 38.016 581.09 26.19Z" fill="#C084FC" fill-opacity="0.5"/>
<path d="M624.53 14.31H600.446C598.988 14.31 598.88 13.176 598.88 11.718C598.88 10.314 598.988 9.18 600.446 9.18H629.768V0H594.128C587.648 0 587.378 5.238 587.378 11.718C587.378 18.252 587.648 23.49 594.128 23.49H618.212C619.67 23.49 619.778 24.624 619.778 26.082C619.778 27.486 619.67 28.62 618.212 28.62H588.89V37.8H624.53C631.01 37.8 631.28 32.562 631.28 26.082C631.28 19.548 631.01 14.31 624.53 14.31Z" fill="#C084FC" fill-opacity="0.5"/>
</svg>
